<svg xmlns="http://www.w3.org/2000/svg" width="256" height="256" viewBox="-30 -51 284 284">
  <rect x="-30" y="-51" width="284" height="284" rx="50" fill="#0D0C0E"/>
  <path fill="#E8C9A0" d="M58.44 23.24C47.68 34 52.04 55.8 68.18 71.94l9.74 9.74c9.13 9.13 19.93 13.65 26.27 11.52L87.65 71.94l21.26 16.54c2.13-6.35-2.39-17.15-11.52-26.27L58.44 23.24zm50.49 80.91c2.08 6.36-2.44 17.12-11.54 26.22l-29.22 29.21C41.28 186.48 10.76 199.56 0 188.8l77.91-77.91c9.1-9.1 19.87-13.62 26.22-11.54l-35.96 40.76 40.76-35.96zm17.68 26.22c-9.13-9.13-13.65-19.93-11.52-26.27l21.26 16.54-16.54-21.26c6.35-2.13 17.15 2.39 26.27 11.52l9.74 9.74c16.14 16.14 20.5 37.94 9.74 48.69l-38.95-38.96zm-11.54-41.95c-2.08-6.36 2.44-17.12 11.54-26.22l29.22-29.21C182.72 6.09 213.24-6.99 224 3.77l-77.91 77.91c-9.1 9.1-19.87 13.62-26.22 11.54l35.96-40.76-40.76 35.96z"/>
</svg>
